<svg width="62" height="81" viewBox="0 0 62 81" fill="none" xmlns="http://www.w3.org/2000/svg">
<path d="M26.7422 79.2095L1.72875 54.2274C-0.576241 51.9253 -0.576241 48.0884 1.72875 45.7863C4.03374 43.4842 7.87539 43.4842 10.1804 45.7863L25.0348 60.5368V5.96842C25.0348 2.64316 27.6812 0 31.0107 0C34.3401 0 36.9866 2.64316 36.9866 5.96842V60.5368L51.7556 45.7863C54.0606 43.4842 57.9022 43.4842 60.2072 45.7863C61.4024 46.98 62 48.5147 62 50.0495C62 51.5842 61.4024 53.1189 60.2072 54.3126L35.2792 79.2095C34.1694 80.3179 32.6327 81 31.0107 81C29.3886 81 27.852 80.4032 26.7422 79.2095Z" fill="#525768"/>
<path d="M26.7422 79.2095L1.72875 54.2274C-0.576241 51.9253 -0.576241 48.0884 1.72875 45.7863C4.03374 43.4842 7.87539 43.4842 10.1804 45.7863L25.0348 60.5368V5.96842C25.0348 2.64316 27.6812 0 31.0107 0C34.3401 0 36.9866 2.64316 36.9866 5.96842V60.5368L51.7556 45.7863C54.0606 43.4842 57.9022 43.4842 60.2072 45.7863C61.4024 46.98 62 48.5147 62 50.0495C62 51.5842 61.4024 53.1189 60.2072 54.3126L35.2792 79.2095C34.1694 80.3179 32.6327 81 31.0107 81C29.3886 81 27.852 80.4032 26.7422 79.2095Z" fill="black" fill-opacity="0.2"/>
</svg>
