<svg width="70" height="70" viewBox="0 0 70 70" fill="none" xmlns="http://www.w3.org/2000/svg">
<circle cx="35" cy="35" r="35" fill="#525768"/>
<circle cx="35" cy="35" r="35" fill="black" fill-opacity="0.2"/>
<g clip-path="url(#clip0_318_6299)">
<path d="M53.83 37.52L52.57 35L47.39 24.776L45.5 20.96C45.0088 18.656 42.9788 17 40.6 17C37.8 17 35.56 19.304 35.56 22.112C35.56 22.4 35.56 22.688 35.63 22.976H34.44C34.51 22.688 34.51 22.4 34.51 22.112C34.5088 19.304 32.2687 17 29.4688 17C27.0887 17 25.0588 18.728 24.5688 20.96L22.6788 24.704L20.0887 29.816L17.4288 35L16.1688 37.52C14.84 39.176 14 41.264 14 43.568C14 48.752 18.13 53 23.24 53C28.35 53 32.48 48.752 32.48 43.568C32.48 42.92 32.41 42.272 32.27 41.624C32.97 42.272 33.95 42.632 35 42.632C36.05 42.632 36.96 42.272 37.73 41.624C37.59 42.272 37.52 42.92 37.52 43.568C37.52 48.752 41.65 53 46.76 53C51.87 53 55.9987 48.752 55.9987 43.568C55.9987 41.264 55.1588 39.104 53.8288 37.52H53.83ZM23.24 49.544C20.02 49.544 17.36 46.88 17.36 43.568C17.36 40.256 20.02 37.592 23.24 37.592C26.46 37.592 29.12 40.256 29.12 43.568C29.12 46.88 26.46 49.544 23.24 49.544ZM35 39.824C34.23 39.824 33.6 39.176 33.6 38.384C33.6 37.592 34.23 36.944 35 36.944C35.77 36.944 36.4 37.592 36.4 38.384C36.4 39.176 35.77 39.824 35 39.824ZM46.76 49.544C43.54 49.544 40.88 46.88 40.88 43.568C40.88 40.256 43.54 37.592 46.76 37.592C49.98 37.592 52.64 40.256 52.64 43.568C52.64 46.88 49.98 49.544 46.76 49.544Z" fill="white"/>
</g>
<defs>
<clipPath id="clip0_318_6299">
<rect width="42" height="36" fill="white" transform="translate(14 17)"/>
</clipPath>
</defs>
</svg>
