<svg width="70" height="70" viewBox="0 0 70 70" fill="none" xmlns="http://www.w3.org/2000/svg">
<g clip-path="url(#clip0_292_3813)">
<circle cx="35" cy="35" r="35" fill="#525768"/>
<circle cx="35" cy="35" r="35" fill="black" fill-opacity="0.2"/>
<path d="M44.9984 45.3223C44.9984 44.7585 44.8409 44.203 44.5507 43.7137C44.2605 43.2328 43.8376 42.8348 43.3318 42.5695V41.3838C43.3152 40.6873 43.622 40.024 44.161 39.5762C46.3168 37.7106 47.8507 35.2232 48.5638 32.4621C49.2686 29.701 49.1193 26.7823 48.116 24.1042C47.1211 21.4343 45.3301 19.1209 42.9836 17.4958C40.637 15.8706 37.8511 15 34.9988 15C32.1465 15 29.3605 15.8706 27.014 17.5041C24.6675 19.1292 22.8765 21.4343 21.8815 24.1124C20.8865 26.7906 20.7289 29.701 21.4337 32.4704C22.1385 35.2315 23.6725 37.7189 25.8366 39.5845C26.3755 40.0323 26.674 40.6956 26.6657 41.3921V42.5778C25.6956 43.0836 25.0654 44.0703 25.0074 45.1565C24.9494 46.251 25.4717 47.2957 26.3755 47.901C26.0273 48.4399 25.8449 49.0618 25.8449 49.7003C25.8117 50.5294 26.1268 51.3337 26.7155 51.9224C27.3042 52.5111 28.1002 52.8345 28.9376 52.8096H29.3024C29.4102 55.0566 31.8728 56.7896 34.9988 56.7896C38.1247 56.7896 40.5873 55.0566 40.6951 52.8096H41.0599C41.8891 52.8345 42.6933 52.5111 43.2821 51.9307C43.8708 51.342 44.1858 50.5377 44.1527 49.7086C44.1527 49.0701 43.9703 48.4399 43.622 47.901C44.4843 47.3289 44.9984 46.3588 44.9984 45.3223ZM41.8891 46.5992H28.1085C27.6607 46.5909 27.2461 46.3422 27.0223 45.9525C26.7984 45.5628 26.7984 45.0819 27.0223 44.6922C27.2461 44.3025 27.6607 44.0537 28.1085 44.0454H41.8891C42.3368 44.0537 42.7514 44.3025 42.9753 44.6922C43.1991 45.0819 43.1991 45.5628 42.9753 45.9525C42.7514 46.3422 42.3368 46.5909 41.8891 46.5992ZM35.9108 42.213V32.5118H38.4895V42.213H35.9108ZM32.561 30.6794L35.0402 27.4954L37.5194 30.6794H32.561ZM31.6075 32.5118H34.0867V42.213H31.6075V32.5118ZM22.835 28.9962C22.835 24.8587 24.9411 21.0031 28.4235 18.7644C31.906 16.5257 36.2922 16.2106 40.0566 17.9352C43.821 19.6599 46.4494 23.1755 47.0381 27.2715C47.6268 31.3676 46.0846 35.4885 42.9587 38.1916C42.0217 38.9875 41.4828 40.1567 41.4994 41.3838V42.213H40.322V31.5915V31.5666V31.5168C40.322 31.5002 40.322 31.492 40.3137 31.4754C40.3054 31.4588 40.3054 31.4422 40.3054 31.4256C40.3054 31.409 40.2971 31.4007 40.2971 31.3842C40.2971 31.3676 40.2888 31.351 40.2888 31.3344C40.2888 31.3178 40.2805 31.3095 40.2722 31.293C40.2639 31.2764 40.2639 31.2681 40.2556 31.2515C40.2473 31.2349 40.2473 31.2183 40.239 31.21C40.2307 31.2018 40.2307 31.1852 40.2225 31.1686C40.2142 31.152 40.2059 31.1354 40.1976 31.1271C40.1893 31.1105 40.181 31.1023 40.1727 31.094C40.1644 31.0857 40.1561 31.0608 40.1395 31.0525C40.1313 31.0442 40.1312 31.0359 40.123 31.0276L35.7616 25.4391C35.5875 25.2152 35.3221 25.0826 35.0402 25.0826C34.7583 25.0826 34.493 25.2152 34.3188 25.4391L29.9575 31.0276C29.9492 31.0359 29.9492 31.0442 29.9409 31.0525C29.9326 31.0691 29.916 31.0774 29.9077 31.094L29.8911 31.1271C29.8829 31.1437 29.8746 31.152 29.8663 31.1686C29.858 31.1852 29.8497 31.1935 29.8497 31.21C29.8414 31.2266 29.8331 31.2349 29.8331 31.2515C29.8331 31.2681 29.8248 31.2764 29.8165 31.293L29.7999 31.3344C29.7916 31.351 29.7916 31.3676 29.7916 31.3842C29.7916 31.4007 29.7834 31.409 29.7834 31.4256C29.7834 31.4422 29.7751 31.4588 29.7751 31.4754C29.7751 31.492 29.7751 31.5002 29.7668 31.5168C29.7585 31.5334 29.7668 31.55 29.7668 31.5666V31.5915V42.213H28.4899V41.3838C28.5065 40.1567 27.9675 38.9793 27.0305 38.1916C24.369 35.8782 22.835 32.5284 22.835 28.9962ZM34.9988 54.9571C32.9922 54.9571 31.2841 53.987 31.1432 52.8096H38.8626C38.7134 53.987 37.0053 54.9571 34.9988 54.9571ZM41.0599 50.9772H28.9376C28.4899 50.9689 28.0753 50.7201 27.8514 50.3304C27.6275 49.9407 27.6275 49.4598 27.8514 49.0701C28.0753 48.6804 28.4899 48.4317 28.9376 48.4234H41.0599C41.5077 48.4317 41.9222 48.6804 42.1461 49.0701C42.37 49.4598 42.37 49.9407 42.1461 50.3304C41.9222 50.7284 41.5159 50.9689 41.0599 50.9772Z" fill="white"/>
</g>
<defs>
<clipPath id="clip0_292_3813">
<rect width="70" height="70" fill="white"/>
</clipPath>
</defs>
</svg>
