<svg width="70" height="70" viewBox="0 0 70 70" fill="none" xmlns="http://www.w3.org/2000/svg">
<circle cx="35" cy="35" r="35" fill="#525768"/>
<circle cx="35" cy="35" r="35" fill="black" fill-opacity="0.2"/>
<path d="M43.8869 30.8533C42.252 28.4267 40.1033 26.3267 38.4217 23.5267C35.3387 18.3933 36.6467 12 36.6467 12C36.6467 12 32.536 16.3867 31.8821 20.5867C31.2281 24.6933 32.3025 25.3 32.2091 30.06C32.0689 35.1467 30.2005 37.06 30.2005 37.06C30.2005 37.06 30.8544 34.1667 29.9669 31.4133C28.659 27.54 25.6694 25.8133 25.6694 25.8133C25.6694 25.8133 26.0431 31.74 24.0345 35.5667C21.7924 39.86 21.699 42.3333 22.3529 46.1133C22.9602 49.5667 25.4826 52.6933 30.0603 53.58C30.4807 53.6733 30.9946 53.7667 31.5551 53.8133C31.0413 53.4867 30.5274 52.9733 30.107 52.18C28.5656 49.38 29.3597 47.0933 32.2091 44.7133C36.7868 40.7933 37.2072 36.78 37.2072 36.78C37.2072 36.78 38.0947 38.9267 38.048 40.7467C38.048 42.24 37.9079 42.52 37.3473 44.5267C36.7868 46.6267 37.6276 47.5133 37.6276 47.5133C37.6276 47.5133 37.7677 46.44 38.4684 45.4133C39.4026 44.1067 41.3178 43.5 41.3178 43.5C41.3178 43.5 39.7763 45.3667 40.4303 49.94C40.6638 51.62 39.9165 53.2067 38.048 54C40.5704 53.7667 43.0461 53.16 44.5409 51.8067C50.3798 46.72 47.9041 36.78 43.8869 30.8533Z" fill="white"/>
</svg>
