<svg width="70" height="70" viewBox="0 0 70 70" fill="none" xmlns="http://www.w3.org/2000/svg">
<g clip-path="url(#clip0_332_4393)">
<ellipse cx="36.5" cy="35.5" rx="33.5" ry="29.5" fill="#525768"/>
<ellipse cx="36.5" cy="35.5" rx="33.5" ry="29.5" fill="black" fill-opacity="0.2"/>
<path d="M34.9767 0C15.6567 0 0 15.68 0 35C0 54.32 15.6567 70 34.9767 70C54.2967 70 70 54.32 70 35C70 15.68 54.32 0 34.9767 0ZM24.1967 23.94C25.06 23.0767 26.2733 22.6567 27.4633 22.82L31.36 23.31C27.51 27.4633 24.78 32.9933 23.52 36.0733L14.9333 33.2267L24.1967 23.94ZM26.95 51.7067C23.7533 54.9033 14.3033 56.0467 14.3033 56.0467C14.3033 56.0467 15.4467 46.5733 18.6433 43.4C19.7167 42.3267 21.1867 41.6733 22.7967 41.6733C26.04 41.6733 28.6767 44.31 28.6767 47.5533C28.6767 49.1633 28.0233 50.6333 26.95 51.7067ZM46.41 46.13L37.1233 55.4167L34.2767 46.83C37.3567 45.57 42.8867 42.84 47.04 38.99L47.53 42.8633C47.6933 44.0767 47.2733 45.2667 46.41 46.13ZM45.8967 36.4233C41.3 41.02 34.09 44.0533 33.46 44.31L26.0167 36.8667C26.2733 36.2367 29.3067 29.0267 33.9033 24.43C44.0067 14.3267 52.4067 15.12 54.6933 15.6333C55.2067 17.9433 56 26.32 45.92 36.4233H45.8967Z" fill="#525768"/>
<path d="M34.9767 0C15.6567 0 0 15.68 0 35C0 54.32 15.6567 70 34.9767 70C54.2967 70 70 54.32 70 35C70 15.68 54.32 0 34.9767 0ZM24.1967 23.94C25.06 23.0767 26.2733 22.6567 27.4633 22.82L31.36 23.31C27.51 27.4633 24.78 32.9933 23.52 36.0733L14.9333 33.2267L24.1967 23.94ZM26.95 51.7067C23.7533 54.9033 14.3033 56.0467 14.3033 56.0467C14.3033 56.0467 15.4467 46.5733 18.6433 43.4C19.7167 42.3267 21.1867 41.6733 22.7967 41.6733C26.04 41.6733 28.6767 44.31 28.6767 47.5533C28.6767 49.1633 28.0233 50.6333 26.95 51.7067ZM46.41 46.13L37.1233 55.4167L34.2767 46.83C37.3567 45.57 42.8867 42.84 47.04 38.99L47.53 42.8633C47.6933 44.0767 47.2733 45.2667 46.41 46.13ZM45.8967 36.4233C41.3 41.02 34.09 44.0533 33.46 44.31L26.0167 36.8667C26.2733 36.2367 29.3067 29.0267 33.9033 24.43C44.0067 14.3267 52.4067 15.12 54.6933 15.6333C55.2067 17.9433 56 26.32 45.92 36.4233H45.8967Z" fill="black" fill-opacity="0.2"/>
<line x1="23.5" y1="20.5" x2="23.5" y2="50.5" stroke="white" stroke-width="3" stroke-linecap="round"/>
<line x1="34.5" y1="20.5" x2="34.5" y2="50.5" stroke="white" stroke-width="3" stroke-linecap="round"/>
<line x1="45.5" y1="20.5" x2="45.5" y2="50.5" stroke="white" stroke-width="3" stroke-linecap="round"/>
<line x1="19.5" y1="45.5" x2="49.5" y2="45.5" stroke="white" stroke-width="3" stroke-linecap="round"/>
<line x1="19.5" y1="34.5" x2="49.5" y2="34.5" stroke="white" stroke-width="3" stroke-linecap="round"/>
<line x1="19.5" y1="23.5" x2="49.5" y2="23.5" stroke="white" stroke-width="3" stroke-linecap="round"/>
</g>
<defs>
<clipPath id="clip0_332_4393">
<rect width="70" height="70" fill="white"/>
</clipPath>
</defs>
</svg>
