<svg width="70" height="70" viewBox="0 0 70 70" fill="none" xmlns="http://www.w3.org/2000/svg">
<circle cx="35" cy="35" r="35" fill="#525768"/>
<circle cx="35" cy="35" r="35" fill="black" fill-opacity="0.2"/>
<path d="M53.0292 26.3884L49.814 19.6947H48.4508L45.2355 26.3884L45.1603 26.7175V53.2103L45.9218 53.9624H52.3429L53.095 53.2103V26.7175L53.0292 26.3884ZM51.5908 52.4488H46.6833V48.6037H51.5908V52.4488ZM51.5908 47.5319H46.6833V26.8773L49.1465 21.7536L51.5814 26.8303H49.0148V27.8832H51.6002L51.5908 47.5319ZM26.903 19.6759H30.2875V21.0109H26.903V19.6759ZM30.1277 50.1737C30.1277 50.5779 29.9678 50.9728 29.6764 51.2548C29.385 51.5463 28.9995 51.7061 28.5952 51.7061C28.191 51.7061 27.7961 51.5463 27.5141 51.2548C27.2227 50.9634 27.0628 50.5779 27.0628 50.1737C27.0628 49.7694 27.2227 49.3746 27.5141 49.0925C27.8055 48.8011 28.191 48.6413 28.5952 48.6413C28.9995 48.6413 29.3944 48.8011 29.6858 49.0925C29.9678 49.3746 30.1371 49.7694 30.1277 50.1737ZM18.0188 54H39.1905V16H18L18.0188 54ZM19.476 17.4666H37.7239V46.5448H19.476V17.4666ZM19.476 47.6165H37.7239V52.5334H19.476V47.6165Z" fill="white"/>
</svg>
