<svg width="70" height="70" viewBox="0 0 70 70" fill="none" xmlns="http://www.w3.org/2000/svg">
<circle cx="35" cy="35" r="35" fill="#525768"/>
<circle cx="35" cy="35" r="35" fill="black" fill-opacity="0.2"/>
<path d="M24.1719 48.1044V53.7408C24.1719 54.313 24.5562 54.6973 25.1284 54.6973H44.7361C45.3083 54.6973 45.6926 54.313 45.6926 53.7408V48.1044C45.6926 45.4229 43.5918 43.322 40.9102 43.322H28.9543C26.2812 43.322 24.1719 45.5168 24.1719 48.1044ZM26.0848 48.1044C26.0848 46.4818 27.3317 45.235 28.9543 45.235H40.9102C42.5328 45.235 43.7796 46.4818 43.7796 48.1044V52.7929H26.0848V48.1044Z" fill="white"/>
<path d="M34.9834 41.1187C38.5189 41.1187 41.2944 36.9085 41.2944 33.3729C41.2944 30.0252 38.425 27.2498 34.9834 27.2498C31.5418 27.2498 28.6724 30.0252 28.6724 33.3729C28.6724 36.9085 31.4479 41.1187 34.9834 41.1187ZM34.9834 29.1627C37.3746 29.1627 39.3815 31.0757 39.3815 33.3729C39.3815 35.952 37.2807 39.2057 34.9834 39.2057C32.6861 39.2057 30.5853 35.952 30.5853 33.3729C30.5853 31.0757 32.4983 29.1627 34.9834 29.1627Z" fill="white"/>
<path d="M12.6941 45.0385L17.7668 46.3793H17.8608L18.339 46.4732H18.6294C18.8173 46.4732 19.0137 46.4732 19.1076 46.3793C19.2955 46.2854 19.4919 45.995 19.5859 45.8071L21.0206 40.1622C21.1145 39.684 20.8327 39.1118 20.3545 39.0179C19.8762 38.9239 19.304 39.2057 19.2101 39.684L18.1597 43.6978C14.2313 36.4302 15.4696 27.1558 21.4049 21.1266C24.2743 18.2572 27.8098 16.4382 31.8322 15.866C32.3104 17.1128 33.5572 17.9668 34.8895 17.9668C36.3242 17.9668 37.4686 17.1043 37.9468 15.866C41.8666 16.5321 45.5047 18.3511 48.3741 21.1266C54.3008 27.0534 55.6416 36.2424 51.7218 43.5099L50.7653 39.684C50.6713 39.2057 50.0992 38.8214 49.6209 39.0179C49.1427 39.1118 48.7584 39.684 48.9548 40.1622L50.3895 45.8071C50.4835 46.2854 50.8678 46.4732 51.346 46.4732H51.6364L57.2813 45.0385C57.7595 44.9446 58.1438 44.3724 57.9474 43.8942C57.8535 43.4159 57.2813 43.0316 56.803 43.2281L53.7457 43.9967C57.6656 36.0545 56.2309 26.2079 49.8259 19.7944C46.5722 16.6346 42.6523 14.6277 38.2542 13.9616C37.9639 12.4329 36.6316 11.28 35.0005 11.28C33.3694 11.28 32.0371 12.4244 31.7468 13.9616C27.3487 14.6277 23.3264 16.6431 20.1751 19.7944C13.7701 26.1994 12.3354 36.0545 16.2553 43.9967L13.2919 43.2281C12.8137 43.1341 12.2415 43.4159 12.1475 43.8942C11.934 44.3724 12.2159 44.9446 12.6941 45.0385ZM34.9834 13.193C35.752 13.193 36.4181 13.8591 36.4181 14.6277C36.4181 15.3963 35.752 15.9685 34.9834 15.9685C34.2148 15.9685 33.5487 15.3024 33.5487 14.5338C33.5487 13.7652 34.1209 13.193 34.9834 13.193Z" fill="white"/>
</svg>
