<svg width="70" height="70" viewBox="0 0 70 70" fill="none" xmlns="http://www.w3.org/2000/svg">
<circle cx="35" cy="35" r="35" fill="#525768"/>
<circle cx="35" cy="35" r="35" fill="black" fill-opacity="0.2"/>
<path d="M45.378 24.02V19.92C46.7953 19.92 47.9291 18.8267 47.9291 17.46C47.9291 16.0933 46.7953 15 45.378 15H23.5512C22.1339 15 21 16.0933 21 17.46C21 18.8267 22.1339 19.92 23.5512 19.92V24.02C23.5512 29.145 26.3858 33.7233 30.5669 35.5C26.3858 37.2767 23.5512 41.855 23.5512 46.98V51.08C22.1339 51.08 21 52.1733 21 53.54C21 54.9067 22.1339 56 23.5512 56H45.4488C46.8661 56 48 54.9067 48 53.54C48 52.1733 46.8661 51.08 45.4488 51.08V46.98C45.4488 41.855 42.6142 37.2767 38.4331 35.5C42.5433 33.7233 45.378 29.145 45.378 24.02ZM36.8031 34.3383C36.3071 34.475 35.9528 34.9533 35.9528 35.5C35.9528 36.0467 36.3071 36.525 36.8031 36.6617C40.8425 37.8917 43.748 42.1283 43.748 46.98V51.08H25.1811V46.98C25.1811 42.1283 28.0157 37.8917 32.126 36.6617C32.622 36.525 32.9764 36.0467 32.9764 35.5C32.9764 34.9533 32.622 34.475 32.126 34.3383C28.0866 33.1083 25.1811 28.8717 25.1811 24.02V19.92H43.6772V24.02C43.748 28.8717 40.8425 33.1083 36.8031 34.3383V34.3383ZM26.9528 45.75H41.9764C42.0472 46.16 42.0472 46.57 42.0472 46.98V49.85H26.8819V46.98C26.8819 46.57 26.8819 46.16 26.9528 45.75V45.75ZM27.0945 26.07H41.8346C41.1969 29.2817 39.0709 31.9467 36.3071 32.7667C35.4567 33.04 34.748 33.655 34.4646 34.475C34.1811 33.655 33.4724 33.04 32.622 32.7667C29.8583 31.9467 27.7323 29.2817 27.0945 26.07V26.07Z" fill="white"/>
</svg>
